    <svg id="rose" version="1.0" xmlns="http://www.w3.org/2000/svg" x="0px" y="0px" viewBox="0 0 817 1280">
        <g style="fill: none; stroke: #000000; stroke-width: 3px;">
        <path style="stroke: #cf1572;" d="M316 5c3.1 7.8 10.6 22.5 18.1 35.1 3.7 6.3 8.5 15.1 10.5 19.5 2.1 4.3 4.6 8.9 5.7 10.2 2.8 3.1 22.7 8.8 22.7 6.5 0-1.8-15.7-24.8-23.7-34.9-4.4-5.5-12.1-14.6-17.1-20.2-5-5.5-10.9-12.6-13.2-15.6-2.3-3.1-4.4-5.6-4.6-5.6-.2 0 .5 2.2 1.6 5zM504 31.1c-1.9.5-5.2 1.4-7.2 1.9-4.8 1.4-12.9 7.8-16.8 13.5l-3.1 4.6 14.8-.7c16.8-.7 23.9.2 32.3 4.3 7.2 3.5 20.3 16.7 25.7 25.8l4.1 7 7.3 1.8c8.4 1.9 15.8 6.5 22.1 13.6 8.3 9.5 10.8 18.5 11.5 41.7.6 20.1-.3 24.8-7.3 36.3-2.5 4-4.4 7.7-4.2 8.2.8 2.2 31.3-10.8 39.6-17 8.6-6.4 9.5-14.6 2.8-27.9-2.4-4.8-5.5-12-7-16-2.5-7.1-2.6-8-2.6-30.8V73.9l-2.9-4.3c-4.2-6.1-12.8-13.6-19.8-17.4-5.2-2.7-8.5-3.5-23.2-5.6-15.2-2.2-18.5-3-28.4-7.2-19.9-8.2-23.5-9.4-29-9.3-2.9 0-6.8.5-8.7 1zM415.5 45.9c-2.2 1-5.7 3.7-7.7 5.9-4.8 5.3-12.5 21.5-17.3 36.2-2.1 6.3-6.1 16.4-8.9 22.5-5 10.8-5.1 11.2-5 20 .1 11 1.5 16.3 5.2 19.9l2.9 2.7 4.4-5.2c2.4-2.8 6.2-7 8.4-9.3l3.9-4.1 1.2 16.9c1.8 24.8 3.7 31 11.4 38 4.4 4 6.8 4.2 3.2.3-1.2-1.3-2.2-3-2.2-3.8 0-.8-.4-1.9-.9-2.4-1.6-1.7-6.1-18.5-7.8-29-1.9-12.3-2.2-50.1-.5-58.9C407 89.7 410 85 412.6 85c2.1 0 4.3-4.1 5.5-10.3 2.5-12.6 7.1-15.7 23.7-15.7 6.1 0 11.2-.4 11.2-.8 0-1.8-10.1-11.4-13.5-12.7-5.1-2.2-18.9-1.9-24 .4z"/>
        <path style="stroke: #cf1572;" d="M477.5 62.7c-2.2 1.4-5.4 3.9-7.2 5.4-5.2 4.5-12.1 6.2-23.1 5.7-6.4-.3-10.8-1-12.8-2.1l-3.1-1.6-.7 15c-.9 17.1-1.9 21.9-7.6 35.3-6.1 14.1-8.3 27.6-6.1 35.6.5 2 1.3.1 3.4-8.5 4.6-19.2 14.1-35.2 27.2-45.8 11.6-9.4 22.2-13.5 38.5-14.7 6.5-.5 14.3-1.8 18-3 7.6-2.5 16.4-3.5 21.4-2.6 4.7.9 9.7 5.3 14.3 12.7 2 3.3 3.7 5.8 3.9 5.7.8-.9-2-10.8-4.1-14.4-3-5.1-13.5-14.8-21.1-19.4-7.5-4.5-13.9-6-26.4-6-9.8 0-10.8.2-14.5 2.7zM290.8 78c-16.6 1.6-26.4 5.8-35.2 15-4.3 4.5-5.8 7-7.5 12.4-4 13.1-4.6 21.1-3.1 48.3.7 13.7 1.1 27.5.7 30.5-.7 6.8-4 13.5-10.6 21.3-2.8 3.2-5.1 6.2-5.1 6.5 0 1.2 10 20.3 15.5 29.5 10 17.1 25 32 34.9 35 5.5 1.6 32.1 2.2 33 .6.3-.4-2.4-3.2-5.9-6.1-11.7-9.4-18.2-17.5-24-29.5-7.1-14.7-10.7-25.4-13.9-40.9-1.4-7.1-2.6-13.3-2.6-13.8 0-1.9 2.9-.5 8.3 4 7.7 6.5 10.2 7.8 12.1 6.3 3.6-3 2.9-13.6-2.9-40.1-1.9-8.5-3.2-15.6-3-15.8.9-.9 6.6 4.2 13.6 11.9 11.5 12.8 15.5 15.6 23.6 16.4 3.7.3 11.4.2 17.1-.4 10.3-1.1 35.7-5.8 37.8-7 .7-.4-.7-5.2-4-14.1-4.6-12.6-5-14.1-5-23-.1-11.3 1.6-17.1 7.4-25.4 2.2-3.2 4-6.1 4-6.5 0-1.2-35.7-12.9-43-14-9.5-1.5-32.2-2.1-42.2-1.1zM664.5 81.7c-2.7 1.4-12.4 5.9-21.5 10-9 4.1-17 7.9-17.7 8.5-1.5 1.2-1.7 9.6-.3 13.3 1 2.5 1 2.5 4.7 1 8.2-3.4 15.2-8.5 26.1-19C666.7 85 672.1 78.9 670.3 79c-.4.1-3 1.3-5.8 2.7z"/>
        <path style="stroke: #cf1572;" d="M516.8 98.6c-3.7 1.3-12.4 3.1-19.5 3.9-20.6 2.4-24 3.2-31.9 7.1-4.1 2.1-7.9 4.3-8.4 4.9-.5.6 3 .1 7.8-1.2 21.9-5.6 45.4-1.3 57.2 10.6 9.3 9.4 13.6 21.5 14.7 41.1.7 13.7-.7 22.1-7 41-2.2 6.9-4 12.7-3.8 13 1.7 3.3 38.3-21.2 44.6-29.9 6-8.2 9.5-15.9 9.5-21 0-9.5-3.9-14.5-30.3-38.4-9.4-8.5-19.3-22.1-21.5-29.5-1.5-4.9-1.8-4.9-11.4-1.6z"/>
        <path style="stroke: #cf1572;" d="M466.6 123c-8.5 1.5-18.7 7.3-25.2 14.3-11.3 12-14.7 22.1-10.5 31.3 3.5 7.6 10.5 10.9 22.1 10.2 5.3-.3 7.2-.9 10.3-3.2 4.4-3.4 9.3-10 10.3-14 .9-3.7-2.1-11.1-5.6-13.6-3.5-2.5-4-2.5-4-.1 0 1.1-1.4 3.3-3.1 5-2.3 2.4-3.9 3.1-6.8 3.1-5 0-7.1-2.4-7.7-9.1-.8-8.2.5-9.4 10.3-9.3 4.3 0 10.4.6 13.6 1.3 5.6 1.2 5.8 1.4 8.6 7 1.6 3.1 3.2 7.8 3.6 10.4.9 6 2.4 5.6 4.9-1.2l1.9-5.2-3.7-7c-2-3.9-3.6-7.2-3.6-7.4 0-.3 1.1-.5 2.4-.5 3.4 0 8 4.2 10.6 9.6 3.1 6.3 2.5 16.9-1.4 24.8-5.5 11.3-24 20.3-39.8 19.4-3.2-.2-5.8 0-5.8.4 0 2.3 15.7 7.8 22 7.8 17.8 0 33.3-8.8 40.3-22.9 2.4-4.9 2.7-6.6 2.7-15.4 0-7.3-.5-10.9-1.7-13.5-2.7-5.7-13.9-16.8-19.6-19.6-5.9-2.8-17.2-4-25.1-2.6zM663 133.4c0 5.7-2.7 18-5.1 23.1-3.1 6.7-11.8 15.7-20.8 21.5-9.7 6.4-28.4 13.7-48.7 19l-4.2 1 1.4 4.8c.8 2.6 2.6 9.2 4.1 14.7 1.4 5.5 2.7 10.1 2.8 10.3.4.4 18.7-9.7 32-17.7 27.5-16.5 37.5-27.1 41.1-44 1.7-8 1.8-22.7.3-30.4-1.3-6.3-2.9-7.6-2.9-2.3zM388.3 165.5c-7 8.4-21.1 28.8-25.9 37.4-2.6 4.7-6.6 11.8-9 15.7-6.4 10.8-15.1 28.5-18.1 37.1-2.5 7.2-2.7 9-2.6 23.3 0 10.9.6 18.8 2 26.5 2 11.1 6.7 23.9 10.4 28.5l2 2.5-.5-2.5c-2-10.2-2.8-26.2-2.3-43.3.5-16 1-20.8 3.1-28.9 3.3-12.5 8.9-25.5 15.1-34.8 7.2-10.8 21-24.8 28.9-29.4 3.7-2.2 6.8-4.2 7.1-4.5.2-.4-.5-4.2-1.6-8.6-1-4.4-2.2-11.2-2.5-15.3-.4-4-1-7.5-1.5-7.7-.4-.3-2.5 1.5-4.6 4zM505.7 196.6c-9 6.1-25.7 12.4-33 12.4-4.7 0-17.8-3-24.2-5.5-3.2-1.4-6-2.3-6.2-2.1-.7.7 16.1 19.8 20.4 23.1 6.8 5.2 10.7 6.6 19.8 7.2 9.2.6 20.4-1.4 27.4-4.9 4.4-2.2 4.6-2.5 4.3-6.3-.3-4.9-3.2-22.3-4.1-24.8-.5-1.6-.9-1.5-4.4.9zM559 210.6c-26 16.9-44 25.5-61.7 29.4-5.1 1.1-13.7 3-19 4.1-28.7 6.2-48.5 16.8-65.9 35.1-12.1 12.7-15.3 17.9-30.5 48.7-9.3 19-10.8 19.3 13.2-2.3 7.9-7.1 15.1-14 16.1-15.5.9-1.4 2.1-5.7 2.7-9.5.7-4.8 1.7-7.6 3.3-9.3 2.8-3.1 33.5-25.3 44.4-32.2 10.3-6.6 17.8-8.5 29.9-7.8 7.9.4 11.2 1.3 26 6.8 16.2 5.9 17.5 6.3 27.8 6.7 13.8.5 18.7-.7 24.3-6.4 2.4-2.3 5.2-6.1 6.4-8.3 2.6-5.2 4.4-18.5 3.7-27.6-.5-6.2-3.9-18.9-5.6-20.7-.3-.3-7.1 3.6-15.1 8.8zM662.8 203.9c-22.5 6.5-53.9 26-71.9 44.7-5.8 6.1-9.8 11.4-8.5 11.4.2 0 3.7-1.9 7.8-4.3 15.7-9.3 26.7-14.7 36.9-18.1 12.3-4.2 13.9-4.3 13.9-1.6 0 3.7-13.7 32.8-19.3 40.9-7.6 11.1-21.7 23.8-41.3 37.1-17.4 11.9-27.7 20.9-31.1 27.3-1.7 3.1-2 10.1-1.1 22.2.4 4.8 3.9 3.7-32.2 9.6-32.9 5.3-57.4 11.4-69.8 17.4-11.1 5.5-20.4 14-24.6 22.6-3.1 6.5-5.5 18.4-3.9 20 .7.7 1.3-.5 1.8-3.8 1-6.6 2.6-10.3 6.5-14 6.1-6 17.9-8.2 34.5-6.4 35.4 3.7 32.8 4 45.5-4.5 14.4-9.5 18.8-11.3 28.7-12 14.8-1.1 18.3.2 30.3 10.6 11.5 10 15.7 12.5 21.6 12.4 7.9-.1 17.7-8.2 20.3-16.7.5-1.8 1.2-5.4 1.6-8.1 1.3-9.8 7.5-12 26-9.2 6.1.9 12.4 1.6 14.1 1.6 3.8 0 7.5-3.7 10.5-10.4 2.1-4.8 2.1-5.8 1.4-24.7l-.7-19.6 2.7-5.4c1.8-3.6 6.1-8.7 12.9-15.4 13-12.7 14.1-14.6 14-25-.1-6.8-.9-10.5-5.8-25.2-3.1-9.5-5.6-19-5.6-21 0-14.6 8.3-19.6 28.7-17.5 5.4.5 10 .8 10.3.5 1-1-7.9-7.9-14.5-11.1-5.8-2.9-24.3-7.5-28.9-7.1-.6 0-5.5 1.3-10.8 2.8zM221.2 243c-7.1 6.6-18.8 12.8-29.5 15.6-3.7.9-7 2.1-7.3 2.6-.3.5 1.7 4.8 4.6 9.5 6 10 31.7 46.4 40.4 57.2 8.2 10.1 20.8 22.3 28.7 27.7 18.7 12.8 39.4 5.7 59.1-20.6 3.1-4.1 5.5-7.6 5.3-7.8-.2-.2-3.5.8-7.3 2.3-6.8 2.6-7.4 2.7-22.8 2.3-13.1-.4-17-.9-22.1-2.7-3.5-1.3-6.3-2.8-6.3-3.5 0-.7 1.6-2 3.6-2.9 1.9-1 3.4-2.2 3.2-2.8-.2-.6-4.2-2.5-8.8-4.3-4.8-1.7-11.1-5.1-14.4-7.6-8.6-6.5-25-27-22.8-28.4.5-.3 4.9 1.5 9.8 3.9 17.5 8.8 37 13.3 51.9 12 12.4-1 16.5-1.7 16-2.5-.2-.4-3.3-1.3-6.7-2-9.1-1.7-19.9-6.5-29.7-13.1-10.4-6.9-28-24.6-34-34.2-2.4-3.7-4.4-6.7-4.4-6.7-.1.1-3 2.7-6.5 6z"/>
        <path style="stroke: #153a0e;" d="M537 278c-.4.3-2.8 4.8-5.4 10-5.4 11.2-14.1 22.4-26.1 33.8-9.6 9.1-23.3 20.1-28.2 22.6-3.2 1.6-3.3 1.6-3.3-.4 0-1.1 1.7-6.6 3.8-12.2 7.2-19 13.7-43.8 11.2-42.3-.6.4-5.7 9.9-11.5 21.3-6.8 13.5-12.2 22.9-15.6 27-8.2 9.9-27.5 24.6-37.5 28.5-7.6 2.9-19.9 4.9-33.3 5.2-7.3.3-13.5.6-13.8.8-.6.7 9.6 9.6 16.2 14 6.7 4.6 19.9 10.7 23.1 10.7 1.2 0 4.9-2.4 8.2-5.4 7.7-6.9 12.8-9.9 23.3-13.7 17.5-6.4 58.2-15.9 77.3-18l10.8-1.2-.7-7.9c-1-12.4.8-17.2 10.3-26.7 4.2-4.2 9.9-9.2 12.6-11 4.8-3.4 4.8-3.4 4.2-7.9-.3-2.5-.9-9.6-1.3-15.8l-.6-11.3-11.5-.3c-6.3-.2-11.7-.1-12.2.2zM327.1 343.3c-13.2 16-32.7 27.3-49.2 28.4-9.3.7-13.6-.6-27.4-8.2l-9.9-5.6-6.1 2.5c-3.3 1.4-12.3 4.8-20 7.6-7.7 2.8-20.5 7.9-28.5 11.2-13.8 5.8-14.9 6.5-21.7 13.4-5.6 5.7-8.2 9.3-11.8 16.8-2.6 5.3-4.5 10.1-4.3 10.7.2.7 3.4-2.6 7-7.2 9.3-11.8 12-14.2 22.8-19.3 8.8-4.3 15.3-6.4 30.6-10.1 8.8-2.1 43.4-3.6 58.4-2.5 50.1 3.8 66.6 3.4 79-2.1 11.2-4.8 11-4.4 5.1-13.5-2.8-4.4-7.3-12-10-16.9-8-14.4-6.8-13.9-14-5.2zM358.1 391.1c-7.2 3.6-9.7 6.6-15 18-6 12.9-19.3 61.6-30 109.9-6.3 28.6-6.6 30.4-9.7 54.5-5.8 45.5-3.6 100.7 5.7 141.5 5.6 24.5 17.5 64.5 26.6 89.8 3.1 8.4 5.3 15.5 5 15.9-1.1 1-24.9-17.6-44.3-34.8-9.7-8.6-45.5-47-65.1-69.9-24.3-28.3-52.7-68-68.8-96-4.3-7.4-8.5-14.4-9.3-15.5-1.3-1.9-1.4-1.8-.8.9 2.4 10.4 14.5 35.9 26.4 55.6 22.6 37.5 49.8 74.8 80.5 110.5 15.5 17.9 22.1 26.4 21.3 27.2-.3.3-4.5-.9-9.3-2.7-22.6-8.3-42-11.3-73.3-11.3-13.5 0-22.4.4-24 1.1-1.4.6-1.8 1.1-1 1.1 9 .4 51.4 5.6 57.6 7.1 19.4 4.5 47 16.4 63.7 27.3 19.2 12.5 43.1 34.2 59.6 54.2 9.2 11.2 19.7 27.9 24 38.2 4.7 11.4 26 85.7 32.5 113.3 11.6 49.2 22 112.8 23.7 144.5 1.1 20.7.6 92.1-.7 103.2l-.7 5.3 12.5-5.5c6.9-2.9 18.8-7.7 26.4-10.5 7.7-2.9 14.2-5.7 14.6-6.3 1.2-1.9.9-16.7-.7-37.7-3.6-46.4-6.9-66-21.2-124.5l-7.5-31 .5-32.5c.5-34.8 1.5-44.5 6.7-70 5.2-25.7 14.8-57.7 20.7-69.3 1.6-3.2 2.2-5.8 1.9-7.3-.5-1.9-.2-2.4 1.2-2.4 1.1 0 5.7-2.5 10.3-5.6 15.6-10.4 34.7-18.8 50.9-22.2 13-2.8 32.6-4.9 56.9-6.2 11.2-.5 21.1-1.1 22-1.1.9-.1-2.2-.8-6.9-1.5s-18.4-1.6-30.5-2c-32.8-1-50.5 1.1-72.5 8.7-12.5 4.3-14 4.6-14 2.6 0-1.8 14.3-22.7 24.2-35.3C553.5 788 600.9 747 656 709.9c8.5-5.7 15.9-10.7 16.5-11.1.5-.4.7-.9.4-1.2-1.4-1.4-58 31.5-76.6 44.6-9.6 6.7-29 23.9-49.7 43.7-10.3 10-19.3 18-19.9 17.8-.5-.1-6.3-15.8-12.7-34.8-6.4-18.9-13.5-39.1-15.8-44.9-10.2-26.4-13.9-31.4-6.1-8.3 6.3 18.7 14.9 48.4 18.5 63.9 2.2 9.9 2.7 14.4 2.8 26.4.1 17 .7 15.4-12.9 34.5-31.8 44.4-50.2 91.1-58.1 147.3-1 7.3-2.1 12.1-2.8 11.9-.5-.2-1.8-2.3-2.7-4.8-1-2.4-8.3-20.8-16.2-40.9-8-20.1-18.6-47.8-23.7-61.5-5.1-13.8-13.3-35.8-18.2-49-10.8-28.8-18.9-52.2-31.5-91-14.9-45.9-19.5-66-24.4-106.5-2.9-24.1-3.2-62.8-.6-82.2 5-36.9 16.5-76.3 30.4-104.2 7.4-14.8 14.5-26 25.2-39.6 5-6.3 8.9-11.8 8.8-12.1-.3-1-16.4-15.5-19.6-17.8l-2.9-2.1-6.1 3.1zM510.5 413.2c-10.9 6.9-26.6 10-39.7 7.9-3.7-.6-7.5-1.4-8.4-1.8-1-.4-1.5-.2-1.3.5.6 1.8 26.4 36.5 37 49.7 5.3 6.6 15 17.2 21.5 23.6 17.8 17.3 25.8 22.2 48.4 29.6 19.3 6.3 23.8 9 35.8 21 5.6 5.6 10.2 10.1 10.2 9.9 0-1.2-4.2-12.1-6.3-16.1-6.1-12.1-13.1-18-34.7-29-19.3-9.9-24.6-14.2-32.8-26.3-10.1-15.2-16.3-33.1-21-60.6-1-6.1-2.3-11.1-2.8-11.3-.5-.1-3.1 1.2-5.9 2.9z"/>
        <path style="stroke: #15c02c;" d="M100.6 446.8c-2.3 3.8-7.7 49.2-7.7 65.4 0 6.5-.4 12-1 12.3-.5.4-1.9-.1-3.1-.9-1.2-.9-2.8-1.6-3.4-1.6-.7 0-2.9 6.9-5.3 16.7-3.1 12.8-4.3 19.7-4.8 29l-.6 12.2-3.1.3-3.1.3-.9 8.6c-1.7 16.9 4.9 35.7 16.7 47.2 6 5.9 7.3 8.5 5.3 9.9-2.8 1.9 15.2 14.3 30.5 20.9 16.3 7.1 20.3 7.9 38 7.9 14.2 0 15.9-.2 15.9-1.7 0-.9-2.9-7.6-6.4-14.8l-6.4-13.1-6.3-1.3c-8.1-1.6-22.5-7.2-30.6-11.7-7.5-4.2-18.3-13.9-18.3-16.4 0-1.5 1.2-1 6.7 2.7 8.5 5.7 19.9 11.5 22.1 11.2.9-.1 2.8.2 4.2.8 1.4.6 4.9 1.3 7.8 1.7 4.4.6 5.2.4 5.2-.9 0-2.2-8.7-28.8-11.6-35.2-2-4.7-3.3-5.9-12.1-11.7-12.3-8.1-26.3-22.2-25.1-25.6.1-.5 5.6 2.6 12.1 7 6.4 4.4 12.6 8 13.7 8 2.5 0 2.3-.8-3.2-17-4.2-12.1-10.2-32.6-11-37.3-1.2-6.5 2.8-1.3 11.6 15.3l5 9.5.8-4.5c.5-2.5 1.2-10.7 1.6-18.2.5-7.6 1.1-14.1 1.6-14.5 2.2-2.3 3.5 7 4.5 33.6.4 12.5 1 17.6 1.9 17.9.6.2 1.2 1.5 1.2 2.8 0 2.9 2 6.9 11 22.4 10.4 17.9 10.9 18.6 11.4 16.9 3.4-10 5.7-19.7 7.5-30.9 1.2-7.4 2.3-14.7 2.6-16.1.2-1.4 0-4.2-.5-6.2-.6-2.8-.5-3.7.6-3.7 2.5 0 3.4 7.5 3.4 29 0 17.8-.4 23.5-2.2 33.2l-2.1 11.6 2.8 5.4c1.5 2.9 5.6 9.3 9 14.3 3.4 4.9 8.4 12.6 11 16.9l4.9 7.9 5.6-6.1c13.6-15 20.9-34.6 21-56.2 0-5-.3-6.1-1.2-5.2-2.9 2.9-3.5 1.1-4.2-11.6-.7-13.7-2.1-22-5.6-32.2-3.9-11.4-13.3-28.6-15-27.5-.4.2-1 2.3-1.4 4.5-.3 2.2-1 4-1.4 4-.5 0-1.8-1.7-2.9-3.8-3.4-5.9-19.5-23.5-29.1-31.6l-8.7-7.5-.8 4.2c-1.4 7.1-1.5 7.2-4.7 2.9-9.5-13.1-51.7-52.2-53.4-49.4zM424 571.7c1.6 4.9 3.6 12.4 4.5 16.8 1.6 7.6 3.4 37.9 3.5 56.8 0 10.1-1.1 11.5-6.2 7.7-3.7-2.7-4.1-2.2-6 6.9-1.5 7.6-1.8 48.3-.4 54.4.8 3.7.8 3.8-1.7 3.2-2.6-.7-2.6-.7-1.5 3.2 1.4 5.3 7.1 16.5 12.7 24.8 2.5 3.8 10.3 12.7 17.2 19.6 10.9 10.9 13.8 13.2 20.4 16.4 8.6 4 18.7 6.9 28.4 7.9l6.4.7-.7-7.3c-.9-9.6-4.3-26.4-6.2-29.9-.8-1.6-3.9-4.5-7-6.6-19.6-13.4-33.6-25.5-39.9-34.8-6.9-9.9-5.1-9.1 19.6 9.2 9.2 6.8 17.1 12.3 17.8 12.3 1.3 0 .8-2.9-3.5-19.9-3.9-14.9-7.1-25-8.6-26.8-.5-.7-5.3-3.5-10.6-6.3-5.4-2.9-10.6-6-11.7-7.1-1.9-1.9-1.9-1.9.8-1.9 1.5 0 6.2.7 10.3 1.6 4.2.8 7.8 1.4 8 1.1.2-.2-.1-1.7-.6-3.3-2.6-8.1-7-24.6-7-26.6 0-2.1.1-2 3.1.8 4.3 4.1 13.7 18.3 19.4 29.1 2.7 5.1 5.2 9.3 5.7 9.3.4 0 .8-1.3.8-2.8 0-4.2 2.9-13.4 4-12.7.6.4 1 7.4 1 16.2v15.6l7 13.6c3.8 7.5 8.1 16.3 9.5 19.5 1.4 3.3 2.9 5.5 3.3 5 .5-.5 2.1-4.3 3.7-8.4 1.5-4.1 3.4-8.4 4.1-9.4 1.3-1.9 1.4-1.9 2-.1.4 1 .2 9.5-.4 18.9-.7 9.4-1.2 19.8-1.2 23.1.1 6.4 2.6 14.6 4.8 15.3 1.6.5 6.7-10.5 9.4-20.7 1.9-6.8 2.1-10.5 2.2-33.6.1-28.7-.8-34.5-7.4-49.1-3.2-7-4.1-7.3-8.4-2.5-1.1 1.2-2.3 2.1-2.7 2.1-.4 0-2-3.7-3.5-8.3-4.6-14.2-13.5-30.1-22.1-39.6-4.2-4.8-6.3-4.9-6.3-.3 0 1.5-.4 3.3-.8 3.9-.5.9-9.5-7.8-27.5-26.6-23.6-24.7-38.3-39.1-40-39.1-.2 0 .8 3.9 2.3 8.7zM667.8 617c-18.1 3.1-36 13.5-43.4 25.2-2.8 4.3-4.6 4-5.8-.8-1-3.9-2.6-1.9-8.9 10.9-9.9 19.8-13.3 36.4-12.5 60 .3 7.6.8 14 1.1 14.4.8.8 13.6-6.6 21.8-12.6l6.7-4.9 1.1-8.9c1.7-12.8 3-17.9 6.8-26.8 3.6-8.5 9-17.5 10.3-17.5 2 0 1.9 2.1-.3 7.1-1.3 3-2.9 7.9-3.5 10.9-1 4.6-3.2 21.3-3.2 24.4 0 .4 1 .6 2.3.3 2-.4 30.2-12.8 37.2-16.3 2.3-1.1 4.3-3.9 8-11.1 6.1-11.8 15.4-22.3 19.9-22.3h2.8l-2.4 3.2c-4 5.2-12 20.6-11.6 22.3.2 1.2 3 .4 13.8-4.1 24.6-10.2 34-13.1 34-10.5 0 .5-.9 1.3-2 1.6-1.1.3-2 1.1-2 1.6s-.8 1.3-1.8 1.7c-.9.4-4.1 2.5-7 4.7-6.6 5-6.2 5.2 11.9 6 13.5.7 17.4 1.5 15.4 3.3-.6.5-10 1.9-21 3.1-11 1.2-21.9 2.6-24.3 3.2-3.1.7-7.9 3.7-17.5 11.2-7.3 5.7-15.2 11.7-17.5 13.2-3.9 2.6-4.2 3-2.7 4.1 2.3 1.7 16.3 4.1 33.4 5.9 13.1 1.3 17.5 2.4 15.9 4.1-.4.3-16.1.8-34.9 1.1l-34.4.6-9 7.2c-9.4 7.5-17.3 13-27 18.9l-5.7 3.4 4.3 3.2c8.1 5.8 20 10.9 31.3 13.5 11.8 2.6 34.2 5.3 35.3 4.2.3-.4-.4-1.8-1.7-3.2-1.3-1.4-2.1-2.8-1.8-3.1.4-.3 3.7-1 7.5-1.4 11.8-1.5 27.4-5.1 36.8-8.4 9.1-3.3 23.5-10.9 23.5-12.5 0-.5-1.3-1.1-3-1.5-3.9-.7-3.8-2.9.3-5.5 8.9-5.5 34.6-36.7 33.4-40.5-.2-.6-1.6-1.2-3-1.4-1.5-.2-2.7-.9-2.7-1.6 0-.6 3.4-5 7.6-9.6 16.3-18.4 38.3-46.5 37.1-47.6-.1-.1-8.1-1-17.7-1.9-11.9-1.1-24.1-1.6-38.3-1.3-22.5.3-23.3.1-18-4.8 1.5-1.4 2.3-2.8 1.7-3.3-1.2-1-24.6-4.8-38.7-6.2-8.9-.9-11.6-.8-15.9.5-2.9.8-5.4 1.3-5.7 1-.2-.2.3-2 1.2-3.9l1.7-3.5-7.3.1c-3.9.1-9.3.5-11.9.9zM131 731.8c0 .5 1.6 3 3.6 5.4 3.7 4.4 6.1 8.5 5.3 9.2-.2.3-3.1-.2-6.4-1-10.8-2.5-21.3-2.8-32.6-.9-11.1 1.8-25.4 5.9-26.4 7.6-.4.5 1.4 3.2 3.9 6s4.6 5.5 4.6 5.9c0 .4-3 2-6.7 3.5-6.9 2.7-69 33.9-73.8 37.1-1.4.9-2.4 1.8-2.3 1.9.2.2 7.9 1.1 17.3 2 24 2.3 33.8 4 45.9 8 11.3 3.7 26.9 10.5 28 12.3.8 1.3-3.1 4.2-5.9 4.2-3.2.1 4.6 6.4 12.4 10.1 13.5 6.4 23.6 9 37.9 9.9 7.4.4 13.9 1.3 14.5 1.9.8.8.4 1.8-1.3 3.6l-2.3 2.5h5.1c6 0 22.7-2.4 32.2-4.6 12.8-3 29.4-13.5 41.2-26.3 5.7-6.1 13.8-19 13.8-21.9 0-2.6-31.8-11-36.3-9.6-1.2.4-6.7 3.9-12.2 7.9-12.8 9.3-21.4 14.6-29.5 18.4-14.9 7-17.7 4.1-4.6-4.7 8.1-5.4 25.8-19.7 26.4-21.3.4-1.1-11.1-1.4-30.8-1l-14.5.4-7.4 6.9c-9 8.3-15.7 13.2-16.6 11.8-.7-1.2.4-3.4 6.3-12.3 2.5-3.7 4.2-7 3.9-7.3-.3-.3-7.4-1.1-15.6-1.7-8.3-.6-15.1-1.4-15.1-1.8 0-3.4 22.7-8.9 37.4-8.9h7.1l-4.5-4.3c-2.5-2.3-6.5-5.9-8.9-7.9-2.3-2-4-4.1-3.7-4.7.9-1.3 9.1 1.2 18.6 5.7 9.1 4.2 15.2 4.6 33.5 2 6.6-1 15.1-2.1 19-2.5l7-.8-9.5-6.1c-5.2-3.4-13.6-8.5-18.7-11.5-5-2.9-8.9-5.7-8.6-6.2 1.9-3.1 22 3.6 37.9 12.5 6 3.3 13.2 7.1 15.9 8.4 4.8 2.2 23.2 6 24.2 5 .7-.7-16.1-17-23.1-22.2-3.3-2.6-8.6-5.8-11.6-7.2-8.6-3.8-27.7-9.9-37-11.7-10.6-2-37-3.3-37-1.7zM622 788.7c-16.4 2.6-24.3 4.9-35.8 10.4-6.7 3.2-14.3 7.5-16.8 9.6-5.8 4.7-19.4 20.1-19.4 21.9 0 1.1 3.8 1.4 19.7 1.4h19.6l10.1-5c11.2-5.5 20.3-8.1 38.1-11 14.3-2.4 18.5-2.5 18.5-.6 0 .8-5.4 3.2-14.9 6.5-15.9 5.4-27.5 10.3-28.5 11.9-.6 1 8.3 3.7 26.8 7.9l11.1 2.5 15.3-1.7c15.1-1.8 27.5-1.6 29.4.3 1.5 1.5-1.4 2.6-11.7 4.7-4.9 1-9.6 2.1-10.3 2.5-.7.3 2 1.6 6 2.9 9.8 3.1 16.8 6.1 16.8 7.3 0 1.9-3.8 2-26.6.4-13-.9-23.9-1.5-24.1-1.2-.6.5 7.9 7.4 17.2 13.9 8.8 6.1 12.9 9.6 12.1 10.4-.7.8-16.2-4.6-23-8-6.4-3.1-15.5-9-21.8-14l-3.8-3-17.4.6c-9.6.3-18.2.9-19 1.4-1.4.8-1.1 1.6 1.9 5.8 5.4 7.7 15 17 26 25.3 5.5 4.1 10.2 7.7 10.4 7.9.2.1.1.6-.2 1-1 .9-15.2-3.4-22.3-6.7-10.1-4.8-20.5-12.2-30.7-21.8l-9.6-9-5.8 1.3c-3.2.8-6.3 1.4-6.9 1.5-.5 0-1.9.6-2.9 1.4-1.8 1.3-1.8 1.5 1 5.2 8.7 11.6 41.2 40.5 55.8 49.8l2.9 1.8-.3-3.9c-.2-2.1.1-3.7.6-3.6.6.1 5.5 1.8 11.1 3.8 6.8 2.4 13.3 3.8 20.2 4.5 11.8 1.2 48.7 1.8 49.7.8.4-.4-.5-2.2-1.9-4.1-1.4-1.9-2.6-3.9-2.6-4.5 0-3 34.2-9.1 51.4-9.2h2.8l-2.6-3.4c-3.3-4.4-3.3-5.3.2-6 4.5-1 22.2-2.5 29.7-2.6l7-.1-4-3.1c-2.2-1.7-9.2-8.3-15.6-14.7-16-16.1-17.7-19.1-10.6-19.1 8.7-.1 5.6-3.8-11.9-14.2-18.5-11-26.7-15.2-37.9-19.2-1.9-.7-1.9-.8.4-2.7 1.3-1 3.1-1.9 4.2-1.9 4.1 0 2.4-2.1-5.9-6.8-22.4-12.8-34-16.8-57.6-19.7-4.6-.6-4.8-.8-4.4-3.6.4-2.8.3-2.9-3.1-2.8-2 .1-4.7.4-6.1.6z"/>
        </g>
    </svg>